<svg width="77" height="77" viewBox="0 0 77 77" fill="none" xmlns="http://www.w3.org/2000/svg">
<circle cx="38.08" cy="38.2399" r="38.08" fill="#BD92F5"/>
<g clip-path="url(#clip0_6_566)">
<path d="M42.5 25.625C44.3921 26.1233 46.1181 27.1148 47.5016 28.4984C48.8852 29.8819 49.8767 31.6079 50.375 33.5" stroke="black" stroke-width="1.4" stroke-linecap="round" stroke-linejoin="round"/>
<path d="M41.375 30.125C43.6981 30.7466 45.2534 32.3019 45.875 34.625" stroke="black" stroke-width="1.4" stroke-linecap="round" stroke-linejoin="round"/>
<path opacity="0.2" d="M43.1173 40.4384C43.2731 40.3348 43.4523 40.2716 43.6387 40.2547C43.8251 40.2377 44.0127 40.2675 44.1847 40.3414L50.8166 43.3128C51.0401 43.4083 51.2266 43.5737 51.3483 43.7841C51.47 43.9945 51.5202 44.2386 51.4916 44.48C51.2731 46.1127 50.4691 47.6105 49.229 48.6949C47.9889 49.7792 46.3973 50.3763 44.75 50.375C39.6777 50.375 34.8132 48.36 31.2266 44.7734C27.64 41.1868 25.625 36.3223 25.625 31.25C25.6237 29.6027 26.2208 28.0111 27.3051 26.771C28.3895 25.5309 29.8873 24.7269 31.52 24.5084C31.7614 24.4798 32.0055 24.53 32.2159 24.6517C32.4263 24.7734 32.5917 24.9599 32.6872 25.1834L35.6586 31.8209C35.7316 31.9914 35.7613 32.1773 35.7451 32.362C35.7289 32.5468 35.6673 32.7247 35.5658 32.8798L32.5606 36.4531C32.454 36.614 32.391 36.7997 32.3777 36.9922C32.3644 37.1847 32.4012 37.3774 32.4847 37.5514C33.6477 39.9322 36.1086 42.3636 38.4964 43.5153C38.6713 43.5984 38.8649 43.6344 39.058 43.6199C39.2511 43.6053 39.437 43.5407 39.5975 43.4323L43.1173 40.4384Z" fill="black"/>
<path d="M43.1173 40.4384C43.2731 40.3348 43.4523 40.2716 43.6387 40.2547C43.8251 40.2377 44.0127 40.2675 44.1847 40.3414L50.8166 43.3128C51.0401 43.4083 51.2266 43.5737 51.3483 43.7841C51.47 43.9945 51.5202 44.2386 51.4916 44.48C51.2731 46.1127 50.4691 47.6105 49.229 48.6949C47.9889 49.7792 46.3973 50.3763 44.75 50.375C39.6777 50.375 34.8132 48.36 31.2266 44.7734C27.64 41.1868 25.625 36.3223 25.625 31.25C25.6237 29.6027 26.2208 28.0111 27.3051 26.771C28.3895 25.5309 29.8873 24.7269 31.52 24.5084C31.7614 24.4798 32.0055 24.53 32.2159 24.6517C32.4263 24.7734 32.5917 24.9599 32.6872 25.1834L35.6586 31.8209C35.7316 31.9914 35.7613 32.1773 35.7451 32.362C35.7289 32.5468 35.6673 32.7247 35.5658 32.8798L32.5606 36.4531C32.454 36.614 32.391 36.7997 32.3777 36.9922C32.3644 37.1847 32.4012 37.3774 32.4847 37.5514C33.6477 39.9322 36.1086 42.3636 38.4964 43.5153C38.6713 43.5984 38.8649 43.6344 39.058 43.6199C39.2511 43.6053 39.437 43.5407 39.5975 43.4323L43.1173 40.4384Z" stroke="black" stroke-width="1.4" stroke-linecap="round" stroke-linejoin="round"/>
</g>
<defs>
<clipPath id="clip0_6_566">
<rect width="36" height="36" fill="white" transform="translate(20 20)"/>
</clipPath>
</defs>
</svg>
